<svg xmlns="http://www.w3.org/2000/svg" viewBox="0 0 120 120">
  <defs>
    <linearGradient id="guideBg" x1="0%" y1="0%" x2="100%" y2="100%">
      <stop offset="0%" stop-color="#1a2838"/>
      <stop offset="100%" stop-color="#0d1520"/>
    </linearGradient>
    <linearGradient id="brainGrad" x1="0%" y1="0%" x2="100%" y2="100%">
      <stop offset="0%" stop-color="#f0e6d2"/>
      <stop offset="50%" stop-color="#c8aa6e"/>
      <stop offset="100%" stop-color="#8a6b33"/>
    </linearGradient>
  </defs>
  <rect width="120" height="120" rx="16" fill="url(#guideBg)"/>
  
  <!-- 大脑轮廓 -->
  <ellipse cx="60" cy="60" rx="35" ry="30" fill="none" stroke="url(#brainGrad)" stroke-width="3"/>
  
  <!-- 脑叶 -->
  <path d="M35 50 Q30 40 45 35 Q60 30 75 35 Q90 40 85 50" fill="none" stroke="#c8aa6e" stroke-width="2" opacity="0.6"/>
  <path d="M35 70 Q30 80 45 85 Q60 90 75 85 Q90 80 85 70" fill="none" stroke="#c8aa6e" stroke-width="2" opacity="0.6"/>
  
  <!-- 神经节点 -->
  <circle cx="40" cy="45" r="4" fill="#0ac8b9"/>
  <circle cx="55" cy="35" r="4" fill="#0ac8b9"/>
  <circle cx="75" cy="40" r="4" fill="#0ac8b9"/>
  <circle cx="80" cy="60" r="4" fill="#0ac8b9"/>
  <circle cx="70" cy="80" r="4" fill="#0ac8b9"/>
  <circle cx="50" cy="85" r="4" fill="#0ac8b9"/>
  <circle cx="35" cy="70" r="4" fill="#0ac8b9"/>
  
  <!-- 连接线 -->
  <line x1="40" y1="45" x2="55" y2="35" stroke="#0ac8b9" stroke-width="1" opacity="0.5"/>
  <line x1="55" y1="35" x2="75" y2="40" stroke="#0ac8b9" stroke-width="1" opacity="0.5"/>
  <line x1="75" y1="40" x2="80" y2="60" stroke="#0ac8b9" stroke-width="1" opacity="0.5"/>
  <line x1="80" y1="60" x2="70" y2="80" stroke="#0ac8b9" stroke-width="1" opacity="0.5"/>
  <line x1="70" y1="80" x2="50" y2="85" stroke="#0ac8b9" stroke-width="1" opacity="0.5"/>
  <line x1="50" y1="85" x2="35" y2="70" stroke="#0ac8b9" stroke-width="1" opacity="0.5"/>
  <line x1="35" y1="70" x2="40" y2="45" stroke="#0ac8b9" stroke-width="1" opacity="0.5"/>
  
  <!-- 光点 -->
  <circle cx="60" cy="60" r="6" fill="#c8aa6e">
    <animate attributeName="r" values="6;8;6" dur="2s" repeatCount="indefinite"/>
  </circle>
</svg>
